<svg width="48" height="48" viewBox="0 0 48 48" fill="none" xmlns="http://www.w3.org/2000/svg">
    <title>AI Technology</title>
    <path d="M24 4C12.96 4 4 12.96 4 24C4 35.04 12.96 44 24 44C35.04 44 44 35.04 44 24C44 12.96 35.04 4 24 4ZM24 40C15.18 40 8 32.82 8 24C8 15.18 15.18 8 24 8C32.82 8 40 15.18 40 24C40 32.82 32.82 40 24 40Z" fill="#0066CC"/>
    <path d="M24 12C17.38 12 12 17.38 12 24C12 30.62 17.38 36 24 36C30.62 36 36 30.62 36 24C36 17.38 30.62 12 24 12ZM24 32C19.58 32 16 28.42 16 24C16 19.58 19.58 16 24 16C28.42 16 32 19.58 32 24C32 28.42 28.42 32 24 32Z" fill="#0066CC"/>
    <path d="M24 20C21.8 20 20 21.8 20 24C20 26.2 21.8 28 24 28C26.2 28 28 26.2 28 24C28 21.8 26.2 20 24 20Z" fill="#0066CC"/>
</svg> 