<svg width="48" height="48" viewBox="0 0 48 48" fill="none" xmlns="http://www.w3.org/2000/svg">
    <title>Customize</title>
    <path d="M24.0001 29.9999C27.3138 29.9999 30.0001 27.3136 30.0001 23.9999C30.0001 20.6862 27.3138 17.9999 24.0001 17.9999C20.6864 17.9999 18.0001 20.6862 18.0001 23.9999C18.0001 27.3136 20.6864 29.9999 24.0001 29.9999Z" stroke="#0066CC" stroke-width="4"/>
    <path d="M39.0001 24C39.0001 32.2843 32.2844 39 24.0001 39C15.7158 39 9.00012 32.2843 9.00012 24C9.00012 15.7157 15.7158 9 24.0001 9C32.2844 9 39.0001 15.7157 39.0001 24Z" stroke="#0066CC" stroke-width="4"/>
    <path d="M24.0001 5V9M39.0001 24H43.0001M24.0001 39V43M5.00012 24H9.00012" stroke="#0066CC" stroke-width="4" stroke-linecap="round"/>
</svg> 